name Walk2.mot
datacolumns 19
datarows 15
range 3.89500000 3.96500000
endheader

                time	   L_ground_force_vx	   L_ground_force_vy	   L_ground_force_vz	   L_ground_force_px	   L_ground_force_py	   L_ground_force_pz	   R_ground_force_vx	   R_ground_force_vy	   R_ground_force_vz	   R_ground_force_px	   R_ground_force_py	   R_ground_force_pz	   L_ground_torque_x	   L_ground_torque_y	   L_ground_torque_z	   R_ground_torque_x	   R_ground_torque_y	   R_ground_torque_z	
          3.89500000	          0.00000000	          0.00000000	          0.00000000	          0.00000000	          0.00000000	          0.00000000	         15.93354209	        137.44273386	          4.72104206	          0.31324517	          0.00000000	          0.11859835	          0.00000000	         -0.00000000	          0.00000000	          0.00000000	         -6.39493832	          0.00000000	
          3.90000000	          0.00000000	          0.00000000	          0.00000000	         -0.00000000	          0.00000000	         -0.00000000	          9.96232436	        106.26412807	          4.31364342	          0.30678014	          0.00000000	          0.11049906	          0.00000000	         -0.00000000	          0.00000000	          0.00000000	         -5.26253768	          0.00000000	
          3.90500000	          0.00000000	          0.00000000	          0.00000000	         -0.00000000	          0.00000000	         -0.00000000	          4.90187225	         79.62909176	          3.78517684	          0.29469593	          0.00000000	          0.10100871	          0.00000000	         -0.00000000	          0.00000000	          0.00000000	         -4.19934434	          0.00000000	
          3.91000000	          0.00000000	          0.00000000	          0.00000000	         -0.00000000	          0.00000000	         -0.00000000	          0.89825359	         57.38688808	          3.19061759	          0.27610192	          0.00000000	          0.09015833	          0.00000000	          0.00000000	          0.00000000	          0.00000000	         -3.23495843	          0.00000000	
          3.91500000	          0.00000000	          0.00000000	          0.00000000	         -0.00000000	          0.00000000	         -0.00000000	         -1.98860306	         39.22211804	          2.57648262	          0.25061493	          0.00000000	          0.07810872	          0.00000000	          0.00000000	          0.00000000	          0.00000000	         -2.38969041	          0.00000000	
          3.92000000	          0.00000000	          0.00000000	          0.00000000	         -0.00000000	          0.00000000	         -0.00000000	         -3.80238831	         24.74418354	          1.98462715	          0.21873225	          0.00000000	          0.06520878	          0.00000000	          0.00000000	          0.00000000	          0.00000000	         -1.67300521	          0.00000000	
          3.92500000	          0.00000000	          0.00000000	          0.00000000	         -0.00000000	          0.00000000	         -0.00000000	         -4.69520340	         13.56690478	          1.44897962	          0.18225732	          0.00000000	          0.05206388	          0.00000000	          0.00000000	          0.00000000	          0.00000000	         -1.08521106	          0.00000000	
          3.93000000	          0.00000000	          0.00000000	          0.00000000	         -0.00000000	          0.00000000	         -0.00000000	         -4.89806651	          5.32948615	          0.99091089	          0.14453735	          0.00000000	          0.03953518	          0.00000000	          0.00000000	          0.00000000	          0.00000000	         -0.62269393	          0.00000000	
          3.93500000	          0.00000000	          0.00000000	          0.00000000	         -0.00000000	          0.00000000	         -0.00000000	         -4.64078085	         -0.37450875	          0.61879122	          0.10891710	          0.00000000	          0.02837401	          0.00000000	          0.00000000	          0.00000000	          0.00000000	         -0.27684310	          0.00000000	
          3.94000000	          0.00000000	          0.00000000	          0.00000000	         -0.00000000	          0.00000000	         -0.00000000	         -4.10875889	         -4.00275107	          0.33121918	          0.07746050	          0.00000000	          0.01897253	          0.00000000	          0.00000000	          0.00000000	          0.00000000	         -0.03316072	          0.00000000	
          3.94500000	         -0.00000000	          0.00000000	          0.00000000	         -0.00000000	          0.00000000	         -0.00000000	         -3.44263036	         -6.01290337	          0.12060936	          0.05116180	          0.00000000	          0.01144304	          0.00000000	          0.00000000	          0.00000000	          0.00000000	          0.12573069	          0.00000000	
          3.95000000	         -0.00000000	         -0.00000000	          0.00000000	         -0.00000000	          0.00000000	         -0.00000000	         -2.74318461	         -6.82642715	         -0.02398937	          0.03025068	          0.00000000	          0.00570952	          0.00000000	          0.00000000	          0.00000000	          0.00000000	          0.21768089	          0.00000000	
          3.95500000	         -0.00000000	         -0.00000000	          0.00000000	         -0.00000000	          0.00000000	         -0.00000000	         -2.07769086	         -6.80823634	         -0.11482047	          0.01444831	          0.00000000	          0.00158117	          0.00000000	          0.00000000	          0.00000000	          0.00000000	          0.25943085	          0.00000000	
          3.96000000	         -0.00000000	         -0.00000000	          0.00000000	         -0.00000000	          0.00000000	         -0.00000000	         -1.48660239	         -6.25812176	         -0.16398778	          0.00317188	          0.00000000	         -0.00119131	          0.00000000	          0.00000000	          0.00000000	          0.00000000	          0.26568644	          0.00000000	
          3.96500000	         -0.00000000	         -0.00000000	         -0.00000000	         -0.00000000	          0.00000000	         -0.00000000	         -0.98997653	         -5.41040217	         -0.18254838	         -0.00431034	          0.00000000	         -0.00287503	          0.00000000	          0.00000000	          0.00000000	          0.00000000	          0.24868545	          0.00000000	
